PathFileType	4	(x/y/z)	S05_PSF_T02
DataRate	CameraRate	NumFrames	NumMarkers	Units	OrigDataRate	OrigDataStartFrame	OrigNumFrames
240	240	6	50	mm	240	111	442
Frame#	Time	Sternum			R.Acromium			L.Acromium			Top.Head			R.ASIS			L.ASIS			R.PSIS			L.PSIS			R.Great.Tro			L.Great.Tro			R.Iliac.Crest			L.Iliac.Crest			V.Sacral			R.Thigh.Upper.Post			R.Thigh.Lower.Ant			R.Thigh.Lower.Post			R.Thigh.Upper.Ant			R.Knee.Lat			R.Knee.Med			R.Shank.Upper.Post			R.Shank.Lower.Ant			R.Shank.Lower.Post			R.Shank.Upper.Ant			R.Ankle.Lat			R.Ankle.Med			R.Heel.Upper			R.Heel.Med			R.Heel.Lat			R.Toe.Lat			R.Toe.Med			R.Toe.Tip			L.Thigh.Upper.Post			L.Thigh.Lower.Ant			L.Thigh.Lower.Post			L.Thigh.Upper.Ant			L.Knee.Lat			L.Shank.Upper.Post			L.Shank.Lower.Ant			L.Shank.Lower.Post			L.Shank.Upper.Ant			L.Ankle.Lat			L.Ankle.Med			L.Heel.Upper			L.Heel.Med			L.Heel.Lat			L.Toe.Lat			L.Toe.Med			L.Toe.Tip			Cervical.Spine			Back			
		X1	Y1	Z1	X2	Y2	Z2	X3	Y3	Z3	X4	Y4	Z4	X5	Y5	Z5	X6	Y6	Z6	X7	Y7	Z7	X8	Y8	Z8	X9	Y9	Z9	X10	Y10	Z10	X11	Y11	Z11	X12	Y12	Z12	X13	Y13	Z13	X14	Y14	Z14	X15	Y15	Z15	X16	Y16	Z16	X17	Y17	Z17	X18	Y18	Z18	X19	Y19	Z19	X20	Y20	Z20	X21	Y21	Z21	X22	Y22	Z22	X23	Y23	Z23	X24	Y24	Z24	X25	Y25	Z25	X26	Y26	Z26	X27	Y27	Z27	X28	Y28	Z28	X29	Y29	Z29	X30	Y30	Z30	X31	Y31	Z31	X32	Y32	Z32	X33	Y33	Z33	X34	Y34	Z34	X35	Y35	Z35	X36	Y36	Z36	X37	Y37	Z37	X38	Y38	Z38	X39	Y39	Z39	X40	Y40	Z40	X41	Y41	Z41	X42	Y42	Z42	X43	Y43	Z43	X44	Y44	Z44	X45	Y45	Z45	X46	Y46	Z46	X47	Y47	Z47	X48	Y48	Z48	X49	Y49	Z49	X50	Y50	Z50	

111	0.45833	-936.73	1271.9	277	-1024.9	1535.1	427.28	-1037.7	1546.8	100.29	-1020.7	1843.3	247.05	-1008.5	1023.4	407.69	NaN	NaN	NaN	NaN	NaN	NaN	NaN	NaN	NaN	-1082.3	941.65	474.57	-1095.8	946.11	87.299	-1101.2	1109.3	446.55	-1091.6	1102.6	109.57	-1221.1	1007.1	287.17	-947.6	751.83	474.59	-874.09	704.46	421.46	-925.73	665.76	455.68	-900.63	788.33	439.12	-908.76	567.99	435.37	-896.99	556.17	305.45	-1020.6	344.17	416.14	-970.78	269.77	422.58	-1031.4	269.52	401.04	-958.73	345.82	437.12	-999.31	164.68	404.1	-979.27	191.97	318.73	-1068.6	120.56	337.87	-1055.8	91.228	308.39	-1064.4	88.714	372.56	-907.57	66.038	438.34	-860.3	83.725	325.38	-810.33	96.782	378.18	-1106.9	708.44	101.11	-1031	631	124.91	-1102.2	614.84	120.61	-1028	719.94	103.25	-1096.6	521.82	131.36	-1176.2	326.23	139.57	-1112.1	263.82	146.06	-1183	255.98	160.53	-1109.4	333.33	130.68	-1163	114.57	175.25	-1130.4	132.78	261.09	-1224.4	71.134	231.04	-1212.5	45.775	262.45	-1224.2	45.021	201.67	-1044.1	39.237	139.1	-1015.7	48.325	257.66	-953.6	56.62	199.86	-1078.8	1581.2	268.49	-1202.2	1310.3	272.63
112	0.4625	-931.46	1271.5	276.74	-1019.4	1534.7	427.18	-1032.3	1546.6	100.24	-1015.2	1843	247.15	-1003	1023.1	407.42	NaN	NaN	NaN	NaN	NaN	NaN	NaN	NaN	NaN	-1077	941.44	474.49	-1091.4	946.07	87.295	-1095.7	1109	446.5	-1086.8	1102.4	109.53	-1216	1007.1	287.4	-942.61	751.27	474.31	-869.29	703.8	421.02	-920.92	665.18	455.32	-895.65	787.7	438.76	-903.68	567.47	434.76	-892.08	555.65	304.83	-1009.6	340.63	416.06	-957.61	267.8	422.59	-1018.2	265.72	401.04	-947.73	344.16	437.13	-982.79	161.73	404.27	-963.66	189.42	318.85	-1050.8	115.23	338.09	-1036.9	86.258	308.71	-1045.4	83.616	372.89	-887.96	66.08	438.5	-841.36	85.067	325.63	-791.58	100.24	378.29	-1103.9	708.56	101.06	-1028.4	630.69	124.8	-1099.7	614.92	120.54	-1025	719.58	103.13	-1094.9	521.78	131.33	-1175.3	326.49	139.68	-1111.3	263.84	146.06	-1182.4	256.29	160.65	-1108.4	333.33	130.66	-1162.8	114.73	175.37	-1130	132.84	261.21	-1224.2	71.25	231.2	-1212.3	45.806	262.58	-1224.1	45.194	201.82	-1044	39.231	139.1	-1015.5	48.196	257.68	-953.49	56.409	199.84	-1073.1	1580.9	268.41	-1196.8	1310.1	272.61
113	0.46667	-926.18	1271.1	276.5	-1013.9	1534.3	427.09	-1026.9	1546.3	100.2	-1009.6	1842.6	247.26	-997.55	1022.8	407.17	NaN	NaN	NaN	NaN	NaN	NaN	NaN	NaN	NaN	-1071.6	941.16	474.42	-1086.9	946	87.291	-1090.1	1108.7	446.47	-1081.9	1102.1	109.5	-1210.8	1007.1	287.64	-937.73	750.58	474.04	-864.61	702.98	420.58	-916.26	664.45	454.96	-890.76	786.92	438.4	-898.73	566.83	434.13	-887.3	554.98	304.18	-998.6	337.15	416.03	-944.45	265.96	422.65	-1004.9	262.04	401.09	-936.75	342.58	437.16	-966.24	159	404.48	-948.07	187.05	319.01	-1032.9	110.17	338.41	-1017.9	81.579	309.1	-1026.4	78.817	373.3	-868.4	66.431	438.67	-822.55	86.691	325.86	-772.84	103.92	378.37	-1100.9	708.67	101.01	-1025.9	630.36	124.7	-1097.2	615	120.48	-1022	719.22	103	-1093.1	521.73	131.3	-1174.3	326.75	139.78	-1110.6	263.85	146.06	-1181.7	256.59	160.76	-1107.4	333.33	130.64	-1162.6	114.88	175.5	-1129.7	132.89	261.32	-1224	71.376	231.38	-1212.1	45.846	262.73	-1224	45.365	201.97	-1044	39.226	139.11	-1015.4	48.065	257.71	-953.38	56.191	199.82	-1067.4	1580.6	268.35	-1191.5	1309.8	272.6
114	0.47083	-920.89	1270.6	276.26	-1008.4	1533.8	427.02	-1021.5	1546	100.18	-1004.1	1842.2	247.39	-992.07	1022.3	406.93	NaN	NaN	NaN	NaN	NaN	NaN	NaN	NaN	NaN	-1066.2	940.81	474.34	-1082.4	945.9	87.287	-1084.5	1108.4	446.44	-1077	1101.8	109.49	-1205.7	1007	287.89	-932.94	749.75	473.76	-860.05	701.98	420.13	-911.73	663.58	454.6	-885.96	785.97	438.03	-893.89	566.07	433.49	-882.67	554.18	303.5	-987.57	333.75	416.04	-931.32	264.28	422.76	-991.67	258.49	401.2	-925.82	341.08	437.23	-949.68	156.5	404.75	-932.52	184.88	319.22	-1014.9	105.39	338.81	-998.93	77.207	309.57	-1007.3	74.336	373.79	-848.92	67.098	438.85	-803.89	88.597	326.07	-754.18	107.84	378.42	-1097.9	708.76	100.95	-1023.2	630.03	124.6	-1094.7	615.06	120.41	-1018.9	718.84	102.89	-1091.3	521.68	131.27	-1173.4	327.01	139.88	-1109.9	263.86	146.06	-1181	256.9	160.87	-1106.4	333.32	130.63	-1162.3	115.03	175.63	-1129.3	132.94	261.43	-1223.9	71.509	231.55	-1212	45.894	262.88	-1224	45.535	202.13	-1044	39.22	139.12	-1015.3	47.934	257.74	-953.28	55.969	199.81	-1061.8	1580.2	268.31	-1186.2	1309.6	272.6
115	0.475	-915.6	1270.1	276.03	-1002.9	1533.2	426.96	-1016.1	1545.6	100.17	-998.53	1841.8	247.53	-986.58	1021.9	406.7	NaN	NaN	NaN	NaN	NaN	NaN	NaN	NaN	NaN	-1060.8	940.39	474.25	-1078	945.79	87.282	-1078.9	1108	446.42	-1072.2	1101.5	109.49	-1200.5	1006.9	288.15	-928.24	748.79	473.48	-855.61	700.82	419.69	-907.32	662.56	454.25	-881.24	784.88	437.65	-889.17	565.2	432.84	-878.18	553.25	302.78	-976.55	330.43	416.11	-918.23	262.75	422.91	-978.41	255.09	401.37	-914.95	339.67	437.31	-933.12	154.25	405.06	-917.02	182.92	319.47	-996.86	100.91	339.29	-979.92	73.158	310.11	-988.19	70.188	374.35	-829.54	68.086	439.03	-785.41	90.786	326.28	-735.65	111.99	378.44	-1094.8	708.84	100.89	-1020.6	629.68	124.51	-1092.1	615.11	120.34	-1015.8	718.44	102.77	-1089.4	521.62	131.24	-1172.4	327.27	139.98	-1109.2	263.87	146.05	-1180.3	257.2	160.98	-1105.4	333.31	130.61	-1162.1	115.18	175.77	-1128.9	132.99	261.55	-1223.7	71.65	231.74	-1211.8	45.95	263.03	-1223.9	45.703	202.3	-1044	39.214	139.12	-1015.2	47.805	257.77	-953.17	55.742	199.8	-1056.1	1579.8	268.28	-1180.8	1309.2	272.62
116	0.47917	-910.29	1269.5	275.82	-997.43	1532.6	426.92	-1010.7	1545.2	100.17	-993.01	1841.3	247.68	-981.06	1021.3	406.48	NaN	NaN	NaN	NaN	NaN	NaN	NaN	NaN	NaN	-1055.5	939.9	474.17	-1073.4	945.65	87.277	-1073.3	1107.5	446.41	-1067.3	1101.2	109.51	-1195.2	1006.7	288.41	-923.64	747.71	473.2	-851.27	699.5	419.24	-903.03	661.41	453.91	-876.59	783.64	437.27	-884.55	564.22	432.18	-873.81	552.19	302.02	-965.53	327.21	416.21	-905.18	261.4	423.11	-965.17	251.85	401.57	-904.14	338.36	437.41	-916.58	152.24	405.42	-901.59	181.17	319.77	-978.8	96.741	339.85	-960.93	69.444	310.72	-969.06	66.388	374.97	-810.28	69.399	439.23	-767.13	93.253	326.47	-717.32	116.37	378.43	-1091.7	708.9	100.81	-1017.9	629.33	124.43	-1089.5	615.15	120.26	-1012.7	718.04	102.66	-1087.6	521.55	131.21	-1171.4	327.54	140.08	-1108.4	263.88	146.05	-1179.6	257.51	161.1	-1104.4	333.29	130.59	-1161.9	115.33	175.9	-1128.6	133.03	261.67	-1223.6	71.796	231.93	-1211.6	46.013	263.19	-1223.8	45.87	202.47	-1043.9	39.207	139.13	-1015.1	47.679	257.79	-953.07	55.512	199.79	-1050.5	1579.4	268.26	-1175.4	1308.8	272.65
